<svg clip-rule="evenodd" fill-rule="evenodd" stroke-linejoin="round" stroke-miterlimit="2" viewBox="0 0 384 384" xmlns="http://www.w3.org/2000/svg"><path d="m5.963 147.381 88.717-87.845c1.803-2.705 4.508-3.6 7.212-3.6h178.413c2.705 0 5.409.895 7.212 2.698l92.812 90.114c1.803 1.803 2.704 4.502 2.704 7.206 0 1.809-.4 3.612-1.474 5.152-.949 1.53-2.289 2.781-3.88 3.624l-179.369 160.635c-.762.745-1.649 1.351-2.621 1.791-.697.349-1.438.604-2.203.758-.495.149-.991.149-1.486.149h-.167c-.335.006-.671-.014-1.003-.06-1.108-.11-2.178-.463-3.134-1.032-.275-.138-.544-.287-.806-.448-1.32-.686-2.433-1.713-3.224-2.973l-177.345-158.82c-1.28-.675-2.4-1.618-3.283-2.764-1.522-1.445-2.071-3.003-2.071-5.111l.011-.471c-.132-3.687 1.79-7.158 4.985-9.003zm140.082 18.489 45.507 125.139 45.502-125.139zm111.653 0-43.568 119.814 133.526-119.814zm-221.354 0 133.329 119.634-43.938-119.634zm-1.135-19.826h83.243l-22.357-60.886zm115.217 0h83.148l-41.574-59.567zm114.483 0h83.661l-61.716-60.361zm-151.633-70.288 21.39 58.82 41.048-58.82zm94.383 0 40.869 58.563 21.294-58.563z" fill="#d55751" fill-rule="nonzero"/></svg>