<svg clip-rule="evenodd" fill-rule="evenodd" stroke-linejoin="round" stroke-miterlimit="2" viewBox="0 0 16 16" xmlns="http://www.w3.org/2000/svg"><path d="m.248 6.141 3.697-3.66c.075-.113.188-.15.3-.15h7.434c.113 0 .226.037.301.112l3.867 3.755c.075.075.113.187.113.3 0 .075-.017.151-.062.215-.039.063-.095.116-.161.151l-7.474 6.693c-.032.031-.069.056-.109.074-.029.015-.06.026-.092.032-.021.006-.041.006-.062.006h-.007c-.014.001-.028 0-.042-.002-.046-.005-.091-.02-.13-.043-.012-.006-.023-.012-.034-.019-.055-.028-.101-.071-.134-.124l-7.39-6.617c-.053-.028-.1-.068-.136-.115-.064-.061-.087-.126-.087-.213l.001-.02c-.006-.154.074-.298.207-.375zm5.837.77 1.896 5.214 1.896-5.214zm4.652 0-1.815 4.992 5.564-4.992zm-9.223 0 5.556 4.985-1.831-4.985zm-.047-.826h3.468l-.931-2.537zm4.801 0h3.464l-1.732-2.482zm4.77 0h3.486l-2.572-2.515zm-6.318-2.928.891 2.45 1.71-2.45zm3.932 0 1.703 2.44.888-2.44z" fill="#d55751" fill-rule="nonzero"/></svg>